# xmcd
# 
# Track frame offsets:
#     150
#     11551
#     27302
#     36853
#     47394
#     61573
#     72395
#     88202
#     102912
#     114695
#     127736
#     136906
#     149299
#     164595
#     178449
#     192121
# 
# Disc length: 2708
# 
# Revision: 2
# Processed by: cddbd v1.5.2PL0 Copyright (c) Steve Scherf et al.
# Submitted via: fre:ac v1.0.27
# 
DISCID=dd0a9210
DTITLE=Lloyd Jones - Highway Bound
DYEAR=2011
DGENRE=Blues
TTITLE0=Travelin' On
TTITLE1=Careless Love
TTITLE2=When I'm Gone
TTITLE3=Ice Cream Man
TTITLE4=Broke Down Engine
TTITLE5=Last Fair Deal Gone Down
TTITLE6=Southbound Train
TTITLE7=No More Crying
TTITLE8=Don't Want Me Baby
TTITLE9=Key To the Highway
TTITLE10=You Better
TTITLE11=Cry For Me Baby
TTITLE12=Make Me a Pallet On the Floor
TTITLE13=Good Night Irene
TTITLE14=Good Morning Little School Girl
TTITLE15=Lazybones
EXTD=
EXTT0=
EXTT1=
EXTT2=
EXTT3=
EXTT4=
EXTT5=
EXTT6=
EXTT7=
EXTT8=
EXTT9=
EXTT10=
EXTT11=
EXTT12=
EXTT13=
EXTT14=
EXTT15=
PLAYORDER=
